<svg id="visual" viewBox="0 0 1600 200" width="1600" height="200" xmlns="http://www.w3.org/2000/svg" xmlns:xlink="http://www.w3.org/1999/xlink" version="1.1"><path d="M0 122L24.2 126.8C48.3 131.7 96.7 141.3 145.2 139.7C193.7 138 242.3 125 290.8 124.5C339.3 124 387.7 136 436.2 138.3C484.7 140.7 533.3 133.3 581.8 130.2C630.3 127 678.7 128 727.2 133.8C775.7 139.7 824.3 150.3 872.8 144.8C921.3 139.3 969.7 117.7 1018.2 116.5C1066.7 115.3 1115.3 134.7 1163.8 140.8C1212.3 147 1260.7 140 1309.2 131.5C1357.7 123 1406.3 113 1454.8 114.8C1503.3 116.7 1551.7 130.3 1575.8 137.2L1600 144L1600 0L1575.8 0C1551.7 0 1503.3 0 1454.8 0C1406.3 0 1357.7 0 1309.2 0C1260.7 0 1212.3 0 1163.8 0C1115.3 0 1066.7 0 1018.2 0C969.7 0 921.3 0 872.8 0C824.3 0 775.7 0 727.2 0C678.7 0 630.3 0 581.8 0C533.3 0 484.7 0 436.2 0C387.7 0 339.3 0 290.8 0C242.3 0 193.7 0 145.2 0C96.7 0 48.3 0 24.2 0L0 0Z" fill="#ffc547"></path><path d="M0 85L24.2 86.3C48.3 87.7 96.7 90.3 145.2 92.2C193.7 94 242.3 95 290.8 88.7C339.3 82.3 387.7 68.7 436.2 64C484.7 59.3 533.3 63.7 581.8 66.7C630.3 69.7 678.7 71.3 727.2 78.8C775.7 86.3 824.3 99.7 872.8 102.3C921.3 105 969.7 97 1018.2 91.3C1066.7 85.7 1115.3 82.3 1163.8 83.5C1212.3 84.7 1260.7 90.3 1309.2 87.8C1357.7 85.3 1406.3 74.7 1454.8 73.5C1503.3 72.3 1551.7 80.7 1575.8 84.8L1600 89L1600 0L1575.8 0C1551.7 0 1503.3 0 1454.8 0C1406.3 0 1357.7 0 1309.2 0C1260.7 0 1212.3 0 1163.8 0C1115.3 0 1066.7 0 1018.2 0C969.7 0 921.3 0 872.8 0C824.3 0 775.7 0 727.2 0C678.7 0 630.3 0 581.8 0C533.3 0 484.7 0 436.2 0C387.7 0 339.3 0 290.8 0C242.3 0 193.7 0 145.2 0C96.7 0 48.3 0 24.2 0L0 0Z" fill="#f47a40"></path><path d="M0 36L24.2 36.5C48.3 37 96.7 38 145.2 36.8C193.7 35.7 242.3 32.3 290.8 34C339.3 35.7 387.7 42.3 436.2 46.5C484.7 50.7 533.3 52.3 581.8 50.7C630.3 49 678.7 44 727.2 39.2C775.7 34.3 824.3 29.7 872.8 29C921.3 28.3 969.7 31.7 1018.2 34.7C1066.7 37.7 1115.3 40.3 1163.8 42.3C1212.3 44.3 1260.7 45.7 1309.2 47.7C1357.7 49.7 1406.3 52.3 1454.8 50.5C1503.3 48.7 1551.7 42.3 1575.8 39.2L1600 36L1600 0L1575.8 0C1551.7 0 1503.3 0 1454.8 0C1406.3 0 1357.7 0 1309.2 0C1260.7 0 1212.3 0 1163.8 0C1115.3 0 1066.7 0 1018.2 0C969.7 0 921.3 0 872.8 0C824.3 0 775.7 0 727.2 0C678.7 0 630.3 0 581.8 0C533.3 0 484.7 0 436.2 0C387.7 0 339.3 0 290.8 0C242.3 0 193.7 0 145.2 0C96.7 0 48.3 0 24.2 0L0 0Z" fill="#ce2d4f"></path></svg>