<svg id="visual" viewBox="0 0 960 540" width="960" height="540" xmlns="http://www.w3.org/2000/svg" xmlns:xlink="http://www.w3.org/1999/xlink" version="1.1"><rect x="0" y="0" width="960" height="540" fill="#202731"></rect><path d="M0 186L22.8 185.2C45.7 184.3 91.3 182.7 137 176.5C182.7 170.3 228.3 159.7 274 165.8C319.7 172 365.3 195 411.2 200C457 205 503 192 548.8 177.8C594.7 163.7 640.3 148.3 686 141.2C731.7 134 777.3 135 823 148.3C868.7 161.7 914.3 187.3 937.2 200.2L960 213L960 0L937.2 0C914.3 0 868.7 0 823 0C777.3 0 731.7 0 686 0C640.3 0 594.7 0 548.8 0C503 0 457 0 411.2 0C365.3 0 319.7 0 274 0C228.3 0 182.7 0 137 0C91.3 0 45.7 0 22.8 0L0 0Z" fill="#ffc547"></path><path d="M0 108L22.8 114.8C45.7 121.7 91.3 135.3 137 142.2C182.7 149 228.3 149 274 143.5C319.7 138 365.3 127 411.2 129.3C457 131.7 503 147.3 548.8 144.8C594.7 142.3 640.3 121.7 686 122C731.7 122.3 777.3 143.7 823 144.2C868.7 144.7 914.3 124.3 937.2 114.2L960 104L960 0L937.2 0C914.3 0 868.7 0 823 0C777.3 0 731.7 0 686 0C640.3 0 594.7 0 548.8 0C503 0 457 0 411.2 0C365.3 0 319.7 0 274 0C228.3 0 182.7 0 137 0C91.3 0 45.7 0 22.8 0L0 0Z" fill="#fb933e"></path><path d="M0 69L22.8 67.7C45.7 66.3 91.3 63.7 137 65.3C182.7 67 228.3 73 274 76.5C319.7 80 365.3 81 411.2 80.3C457 79.7 503 77.3 548.8 84.8C594.7 92.3 640.3 109.7 686 114.5C731.7 119.3 777.3 111.7 823 102.5C868.7 93.3 914.3 82.7 937.2 77.3L960 72L960 0L937.2 0C914.3 0 868.7 0 823 0C777.3 0 731.7 0 686 0C640.3 0 594.7 0 548.8 0C503 0 457 0 411.2 0C365.3 0 319.7 0 274 0C228.3 0 182.7 0 137 0C91.3 0 45.7 0 22.8 0L0 0Z" fill="#ea6144"></path><path d="M0 70L22.8 67.7C45.7 65.3 91.3 60.7 137 60.7C182.7 60.7 228.3 65.3 274 66C319.7 66.7 365.3 63.3 411.2 60.5C457 57.7 503 55.3 548.8 57.8C594.7 60.3 640.3 67.7 686 69.3C731.7 71 777.3 67 823 65C868.7 63 914.3 63 937.2 63L960 63L960 0L937.2 0C914.3 0 868.7 0 823 0C777.3 0 731.7 0 686 0C640.3 0 594.7 0 548.8 0C503 0 457 0 411.2 0C365.3 0 319.7 0 274 0C228.3 0 182.7 0 137 0C91.3 0 45.7 0 22.8 0L0 0Z" fill="#ce2d4f"></path></svg>